<?xml version="1.0" encoding="UTF-8" standalone="no"?>
<!DOCTYPE svg PUBLIC "-//W3C//DTD SVG 1.1//EN"
 "http://www.w3.org/Graphics/SVG/1.1/DTD/svg11.dtd">
<!-- Generated by graphviz version 11.0.0 (20240428.1522)
 -->
<!-- Pages: 1 -->
<svg width="666pt" height="659pt"
 viewBox="0.00 0.00 666.41 659.41" xmlns="http://www.w3.org/2000/svg" xmlns:xlink="http://www.w3.org/1999/xlink">
<g id="graph0" class="graph" transform="scale(1 1) rotate(0) translate(4 655.41)">
<polygon fill="white" stroke="none" points="-4,4 -4,-655.41 662.41,-655.41 662.41,4 -4,4"/>
<text text-anchor="middle" x="329.21" y="-7.2" font-family="Times,serif" font-size="14.00">k=2, n=10</text>
<!-- (0, 10) -->
<g id="node1" class="node">
<title>(0, 10)</title>
<polygon fill="none" stroke="black" points="491.04,-84.44 392.54,-84.44 392.54,-48.44 491.04,-48.44 491.04,-84.44"/>
<text text-anchor="middle" x="441.79" y="-61.39" font-family="Times,serif" font-size="14.00">START (0, 10)</text>
</g>
<!-- (2, 8) -->
<g id="node4" class="node">
<title>(2, 8)</title>
<ellipse fill="none" stroke="black" cx="275.31" cy="-42.5" rx="31.39" ry="18"/>
<text text-anchor="middle" x="275.31" y="-37.45" font-family="Times,serif" font-size="14.00">(2, 8)</text>
</g>
<!-- (0, 10)&#45;&#45;(2, 8) -->
<g id="edge2" class="edge">
<title>(0, 10)&#45;&#45;(2, 8)</title>
<path fill="none" stroke="#000000" stroke-opacity="0.250980" d="M392.3,-59.32C364.31,-55.3 330.2,-50.39 306.05,-46.92"/>
</g>
<!-- (7, 3) -->
<g id="node9" class="node">
<title>(7, 3)</title>
<ellipse fill="none" stroke="black" cx="275.31" cy="-633.41" rx="31.39" ry="18"/>
<text text-anchor="middle" x="275.31" y="-628.36" font-family="Times,serif" font-size="14.00">(7, 3)</text>
</g>
<!-- (0, 10)&#45;&#45;(7, 3) -->
<g id="edge7" class="edge">
<title>(0, 10)&#45;&#45;(7, 3)</title>
<path fill="none" stroke="#000000" stroke-opacity="0.250980" d="M436.44,-84.66C411.37,-170.05 305.68,-530.01 280.65,-615.26"/>
</g>
<!-- (10, 0) -->
<g id="node2" class="node">
<title>(10, 0)</title>
<polygon fill="none" stroke="black" points="658.41,-355.96 574.16,-355.96 574.16,-319.96 658.41,-319.96 658.41,-355.96"/>
<text text-anchor="middle" x="616.29" y="-332.91" font-family="Times,serif" font-size="14.00">END (10, 0)</text>
</g>
<!-- (10, 0)&#45;&#45;(0, 10) -->
<g id="edge10" class="edge">
<title>(10, 0)&#45;&#45;(0, 10)</title>
<path fill="none" stroke="#000000" stroke-opacity="0.250980" d="M604.57,-319.72C572.78,-270.26 485.19,-133.96 453.46,-84.59"/>
</g>
<!-- (1, 9) -->
<g id="node3" class="node">
<title>(1, 9)</title>
<ellipse fill="none" stroke="black" cx="568.9" cy="-176.58" rx="31.39" ry="18"/>
<text text-anchor="middle" x="568.9" y="-171.53" font-family="Times,serif" font-size="14.00">(1, 9)</text>
</g>
<!-- (10, 0)&#45;&#45;(1, 9) -->
<g id="edge19" class="edge">
<title>(10, 0)&#45;&#45;(1, 9)</title>
<path fill="none" stroke="#000000" stroke-opacity="0.250980" d="M610.95,-319.76C601.8,-288.6 583.24,-225.41 574.16,-194.46"/>
</g>
<!-- (10, 0)&#45;&#45;(2, 8) -->
<g id="edge27" class="edge">
<title>(10, 0)&#45;&#45;(2, 8)</title>
<path fill="none" stroke="#000000" stroke-opacity="0.250980" d="M594.96,-319.47C532.41,-265.28 350.27,-107.45 292.86,-57.7"/>
</g>
<!-- (6, 4) -->
<g id="node8" class="node">
<title>(6, 4)</title>
<ellipse fill="none" stroke="black" cx="122.32" cy="-563.54" rx="31.39" ry="18"/>
<text text-anchor="middle" x="122.32" y="-558.49" font-family="Times,serif" font-size="14.00">(6, 4)</text>
</g>
<!-- (10, 0)&#45;&#45;(6, 4) -->
<g id="edge49" class="edge">
<title>(10, 0)&#45;&#45;(6, 4)</title>
<path fill="none" stroke="#000000" stroke-opacity="0.250980" d="M575.87,-356.42C477.36,-401.4 227.16,-515.67 147.26,-552.16"/>
</g>
<!-- (10, 0)&#45;&#45;(7, 3) -->
<g id="edge52" class="edge">
<title>(10, 0)&#45;&#45;(7, 3)</title>
<path fill="none" stroke="#000000" stroke-opacity="0.250980" d="M594.96,-356.44C532.41,-410.64 350.27,-568.46 292.86,-618.21"/>
</g>
<!-- (1, 9)&#45;&#45;(0, 10) -->
<g id="edge1" class="edge">
<title>(1, 9)&#45;&#45;(0, 10)</title>
<path fill="none" stroke="#ff0000" d="M551.23,-161.26C528.17,-141.28 487.87,-106.36 463.13,-84.93"/>
</g>
<!-- (1, 9)&#45;&#45;(2, 8) -->
<g id="edge11" class="edge">
<title>(1, 9)&#45;&#45;(2, 8)</title>
<path fill="none" stroke="#ff0000" d="M543.87,-165.15C488.41,-139.82 355.69,-79.21 300.28,-53.9"/>
</g>
<!-- (1, 9)&#45;&#45;(7, 3) -->
<g id="edge16" class="edge">
<title>(1, 9)&#45;&#45;(7, 3)</title>
<path fill="none" stroke="#000000" stroke-opacity="0.250980" d="M557.93,-193.65C511.61,-265.73 332.32,-544.72 286.19,-616.5"/>
</g>
<!-- (3, 7) -->
<g id="node5" class="node">
<title>(3, 7)</title>
<ellipse fill="none" stroke="black" cx="122.32" cy="-112.37" rx="31.39" ry="18"/>
<text text-anchor="middle" x="122.32" y="-107.32" font-family="Times,serif" font-size="14.00">(3, 7)</text>
</g>
<!-- (3, 7)&#45;&#45;(0, 10) -->
<g id="edge3" class="edge">
<title>(3, 7)&#45;&#45;(0, 10)</title>
<path fill="none" stroke="#000000" stroke-opacity="0.250980" d="M153.24,-107.92C208.68,-99.95 325.4,-83.17 392.15,-73.57"/>
</g>
<!-- (3, 7)&#45;&#45;(10, 0) -->
<g id="edge34" class="edge">
<title>(3, 7)&#45;&#45;(10, 0)</title>
<path fill="none" stroke="#000000" stroke-opacity="0.250980" d="M147.16,-123.71C226.98,-160.16 477.49,-274.57 575.96,-319.54"/>
</g>
<!-- (3, 7)&#45;&#45;(1, 9) -->
<g id="edge12" class="edge">
<title>(3, 7)&#45;&#45;(1, 9)</title>
<path fill="none" stroke="#000000" stroke-opacity="0.250980" d="M153.02,-116.78C234.6,-128.51 456.17,-160.37 537.99,-172.13"/>
</g>
<!-- (3, 7)&#45;&#45;(2, 8) -->
<g id="edge20" class="edge">
<title>(3, 7)&#45;&#45;(2, 8)</title>
<path fill="none" stroke="#ff0000" d="M147.24,-100.99C175.69,-88 221.96,-66.87 250.4,-53.88"/>
</g>
<!-- (4, 6) -->
<g id="node6" class="node">
<title>(4, 6)</title>
<ellipse fill="none" stroke="black" cx="31.39" cy="-253.86" rx="31.39" ry="18"/>
<text text-anchor="middle" x="31.39" y="-248.81" font-family="Times,serif" font-size="14.00">(4, 6)</text>
</g>
<!-- (3, 7)&#45;&#45;(4, 6) -->
<g id="edge28" class="edge">
<title>(3, 7)&#45;&#45;(4, 6)</title>
<path fill="none" stroke="#ff0000" d="M111.35,-129.44C93.88,-156.63 59.9,-209.5 42.4,-236.73"/>
</g>
<!-- (5, 5) -->
<g id="node7" class="node">
<title>(5, 5)</title>
<ellipse fill="none" stroke="black" cx="31.39" cy="-422.05" rx="31.39" ry="18"/>
<text text-anchor="middle" x="31.39" y="-417" font-family="Times,serif" font-size="14.00">(5, 5)</text>
</g>
<!-- (3, 7)&#45;&#45;(5, 5) -->
<g id="edge29" class="edge">
<title>(3, 7)&#45;&#45;(5, 5)</title>
<path fill="none" stroke="#000000" stroke-opacity="0.250980" d="M117.04,-130.36C100.97,-185.09 52.78,-349.21 36.69,-404.01"/>
</g>
<!-- (3, 7)&#45;&#45;(6, 4) -->
<g id="edge30" class="edge">
<title>(3, 7)&#45;&#45;(6, 4)</title>
<path fill="none" stroke="#000000" stroke-opacity="0.250980" d="M122.32,-130.61C122.32,-203.32 122.32,-471.96 122.32,-545.07"/>
</g>
<!-- (3, 7)&#45;&#45;(7, 3) -->
<g id="edge31" class="edge">
<title>(3, 7)&#45;&#45;(7, 3)</title>
<path fill="none" stroke="#000000" stroke-opacity="0.250980" d="M127.59,-130.3C151.1,-210.38 246.36,-534.81 269.99,-615.28"/>
</g>
<!-- (8, 2) -->
<g id="node10" class="node">
<title>(8, 2)</title>
<ellipse fill="none" stroke="black" cx="441.79" cy="-609.48" rx="31.39" ry="18"/>
<text text-anchor="middle" x="441.79" y="-604.43" font-family="Times,serif" font-size="14.00">(8, 2)</text>
</g>
<!-- (3, 7)&#45;&#45;(8, 2) -->
<g id="edge32" class="edge">
<title>(3, 7)&#45;&#45;(8, 2)</title>
<path fill="none" stroke="#000000" stroke-opacity="0.250980" d="M133.32,-129.48C182.42,-205.88 381.34,-515.41 430.68,-592.18"/>
</g>
<!-- (9, 1) -->
<g id="node11" class="node">
<title>(9, 1)</title>
<ellipse fill="none" stroke="black" cx="568.9" cy="-499.34" rx="31.39" ry="18"/>
<text text-anchor="middle" x="568.9" y="-494.29" font-family="Times,serif" font-size="14.00">(9, 1)</text>
</g>
<!-- (3, 7)&#45;&#45;(9, 1) -->
<g id="edge33" class="edge">
<title>(3, 7)&#45;&#45;(9, 1)</title>
<path fill="none" stroke="#000000" stroke-opacity="0.250980" d="M139.83,-127.54C211.27,-189.44 480.3,-422.56 551.52,-484.27"/>
</g>
<!-- (4, 6)&#45;&#45;(0, 10) -->
<g id="edge4" class="edge">
<title>(4, 6)&#45;&#45;(0, 10)</title>
<path fill="none" stroke="#000000" stroke-opacity="0.250980" d="M56.45,-242.42C125.19,-211.03 317.22,-123.33 401.39,-84.89"/>
</g>
<!-- (4, 6)&#45;&#45;(10, 0) -->
<g id="edge40" class="edge">
<title>(4, 6)&#45;&#45;(10, 0)</title>
<path fill="none" stroke="#000000" stroke-opacity="0.250980" d="M62.01,-258.26C159.33,-272.26 461.67,-315.73 573.84,-331.85"/>
</g>
<!-- (4, 6)&#45;&#45;(1, 9) -->
<g id="edge13" class="edge">
<title>(4, 6)&#45;&#45;(1, 9)</title>
<path fill="none" stroke="#000000" stroke-opacity="0.250980" d="M62.22,-249.43C157.03,-235.8 443.56,-194.6 538.2,-180.99"/>
</g>
<!-- (4, 6)&#45;&#45;(2, 8) -->
<g id="edge21" class="edge">
<title>(4, 6)&#45;&#45;(2, 8)</title>
<path fill="none" stroke="#000000" stroke-opacity="0.250980" d="M48.93,-238.66C93.83,-199.76 212.52,-96.91 257.6,-57.85"/>
</g>
<!-- (4, 6)&#45;&#45;(5, 5) -->
<g id="edge35" class="edge">
<title>(4, 6)&#45;&#45;(5, 5)</title>
<path fill="none" stroke="#ff0000" d="M31.39,-272.18C31.39,-304.53 31.39,-371.42 31.39,-403.76"/>
</g>
<!-- (4, 6)&#45;&#45;(6, 4) -->
<g id="edge36" class="edge">
<title>(4, 6)&#45;&#45;(6, 4)</title>
<path fill="none" stroke="#000000" stroke-opacity="0.250980" d="M36.67,-271.85C52.74,-326.58 100.93,-490.71 117.03,-545.51"/>
</g>
<!-- (4, 6)&#45;&#45;(7, 3) -->
<g id="edge37" class="edge">
<title>(4, 6)&#45;&#45;(7, 3)</title>
<path fill="none" stroke="#000000" stroke-opacity="0.250980" d="M42.51,-271.16C83.23,-334.53 224.04,-553.62 264.41,-616.45"/>
</g>
<!-- (5, 5)&#45;&#45;(0, 10) -->
<g id="edge5" class="edge">
<title>(5, 5)&#45;&#45;(0, 10)</title>
<path fill="none" stroke="#000000" stroke-opacity="0.250980" d="M49.03,-406.77C115.23,-349.41 348.81,-147 420.63,-84.78"/>
</g>
<!-- (5, 5)&#45;&#45;(10, 0) -->
<g id="edge45" class="edge">
<title>(5, 5)&#45;&#45;(10, 0)</title>
<path fill="none" stroke="#000000" stroke-opacity="0.250980" d="M62.01,-417.65C159.33,-403.66 461.67,-360.19 573.84,-344.06"/>
</g>
<!-- (5, 5)&#45;&#45;(1, 9) -->
<g id="edge14" class="edge">
<title>(5, 5)&#45;&#45;(1, 9)</title>
<path fill="none" stroke="#000000" stroke-opacity="0.250980" d="M56.24,-410.71C146.16,-369.64 454.02,-229.04 544.01,-187.95"/>
</g>
<!-- (5, 5)&#45;&#45;(2, 8) -->
<g id="edge22" class="edge">
<title>(5, 5)&#45;&#45;(2, 8)</title>
<path fill="none" stroke="#000000" stroke-opacity="0.250980" d="M42.51,-404.76C83.23,-341.38 224.04,-122.29 264.41,-59.46"/>
</g>
<!-- (5, 5)&#45;&#45;(6, 4) -->
<g id="edge41" class="edge">
<title>(5, 5)&#45;&#45;(6, 4)</title>
<path fill="none" stroke="#ff0000" d="M42.36,-439.12C59.84,-466.32 93.81,-519.18 111.31,-546.42"/>
</g>
<!-- (5, 5)&#45;&#45;(7, 3) -->
<g id="edge42" class="edge">
<title>(5, 5)&#45;&#45;(7, 3)</title>
<path fill="none" stroke="#000000" stroke-opacity="0.250980" d="M48.93,-437.25C93.83,-476.16 212.52,-579 257.6,-618.07"/>
</g>
<!-- (6, 4)&#45;&#45;(0, 10) -->
<g id="edge6" class="edge">
<title>(6, 4)&#45;&#45;(0, 10)</title>
<path fill="none" stroke="#000000" stroke-opacity="0.250980" d="M133.32,-546.43C182.2,-470.37 379.56,-163.27 430.01,-84.78"/>
</g>
<!-- (6, 4)&#45;&#45;(1, 9) -->
<g id="edge15" class="edge">
<title>(6, 4)&#45;&#45;(1, 9)</title>
<path fill="none" stroke="#000000" stroke-opacity="0.250980" d="M139.83,-548.37C211.27,-486.47 480.3,-253.35 551.52,-191.64"/>
</g>
<!-- (6, 4)&#45;&#45;(2, 8) -->
<g id="edge23" class="edge">
<title>(6, 4)&#45;&#45;(2, 8)</title>
<path fill="none" stroke="#000000" stroke-opacity="0.250980" d="M127.59,-545.61C151.1,-465.53 246.36,-141.1 269.99,-60.63"/>
</g>
<!-- (6, 4)&#45;&#45;(7, 3) -->
<g id="edge46" class="edge">
<title>(6, 4)&#45;&#45;(7, 3)</title>
<path fill="none" stroke="#ff0000" d="M147.24,-574.93C175.69,-587.92 221.96,-609.05 250.4,-622.04"/>
</g>
<!-- (7, 3)&#45;&#45;(2, 8) -->
<g id="edge24" class="edge">
<title>(7, 3)&#45;&#45;(2, 8)</title>
<path fill="none" stroke="#000000" stroke-opacity="0.250980" d="M275.31,-615.08C275.31,-527.13 275.31,-149.04 275.31,-60.91"/>
</g>
<!-- (8, 2)&#45;&#45;(0, 10) -->
<g id="edge8" class="edge">
<title>(8, 2)&#45;&#45;(0, 10)</title>
<path fill="none" stroke="#000000" stroke-opacity="0.250980" d="M441.79,-591.1C441.79,-508 441.79,-167.9 441.79,-84.81"/>
</g>
<!-- (8, 2)&#45;&#45;(10, 0) -->
<g id="edge54" class="edge">
<title>(8, 2)&#45;&#45;(10, 0)</title>
<path fill="none" stroke="#000000" stroke-opacity="0.250980" d="M452.71,-592.49C483.75,-544.2 572.34,-406.35 604.47,-356.35"/>
</g>
<!-- (8, 2)&#45;&#45;(1, 9) -->
<g id="edge17" class="edge">
<title>(8, 2)&#45;&#45;(1, 9)</title>
<path fill="none" stroke="#000000" stroke-opacity="0.250980" d="M447.09,-591.43C467.77,-521.02 542.87,-265.25 563.58,-194.71"/>
</g>
<!-- (8, 2)&#45;&#45;(2, 8) -->
<g id="edge25" class="edge">
<title>(8, 2)&#45;&#45;(2, 8)</title>
<path fill="none" stroke="#000000" stroke-opacity="0.250980" d="M436.44,-591.26C411.37,-505.87 305.68,-145.9 280.65,-60.65"/>
</g>
<!-- (8, 2)&#45;&#45;(4, 6) -->
<g id="edge38" class="edge">
<title>(8, 2)&#45;&#45;(4, 6)</title>
<path fill="none" stroke="#000000" stroke-opacity="0.250980" d="M424.16,-594.2C356.81,-535.83 116.2,-327.35 48.96,-269.08"/>
</g>
<!-- (8, 2)&#45;&#45;(5, 5) -->
<g id="edge43" class="edge">
<title>(8, 2)&#45;&#45;(5, 5)</title>
<path fill="none" stroke="#000000" stroke-opacity="0.250980" d="M416.74,-598.04C343.38,-564.54 129.65,-466.92 56.38,-433.46"/>
</g>
<!-- (8, 2)&#45;&#45;(6, 4) -->
<g id="edge47" class="edge">
<title>(8, 2)&#45;&#45;(6, 4)</title>
<path fill="none" stroke="#000000" stroke-opacity="0.250980" d="M410.87,-605.03C349.8,-596.25 214.35,-576.78 153.26,-567.99"/>
</g>
<!-- (8, 2)&#45;&#45;(7, 3) -->
<g id="edge50" class="edge">
<title>(8, 2)&#45;&#45;(7, 3)</title>
<path fill="none" stroke="#ff0000" d="M410.87,-613.92C380.97,-618.22 335.92,-624.7 306.07,-628.99"/>
</g>
<!-- (8, 2)&#45;&#45;(9, 1) -->
<g id="edge53" class="edge">
<title>(8, 2)&#45;&#45;(9, 1)</title>
<path fill="none" stroke="#ff0000" d="M459.47,-594.16C483.75,-573.12 527.18,-535.49 551.38,-514.52"/>
</g>
<!-- (9, 1)&#45;&#45;(0, 10) -->
<g id="edge9" class="edge">
<title>(9, 1)&#45;&#45;(0, 10)</title>
<path fill="none" stroke="#000000" stroke-opacity="0.250980" d="M563.6,-481.29C542.93,-410.88 467.83,-155.11 447.12,-84.56"/>
</g>
<!-- (9, 1)&#45;&#45;(10, 0) -->
<g id="edge55" class="edge">
<title>(9, 1)&#45;&#45;(10, 0)</title>
<path fill="none" stroke="#ff0000" d="M574.25,-481.14C583.35,-450.14 601.76,-387.45 610.89,-356.34"/>
</g>
<!-- (9, 1)&#45;&#45;(1, 9) -->
<g id="edge18" class="edge">
<title>(9, 1)&#45;&#45;(1, 9)</title>
<path fill="none" stroke="#000000" stroke-opacity="0.250980" d="M568.9,-481.06C568.9,-424.38 568.9,-252 568.9,-195.06"/>
</g>
<!-- (9, 1)&#45;&#45;(2, 8) -->
<g id="edge26" class="edge">
<title>(9, 1)&#45;&#45;(2, 8)</title>
<path fill="none" stroke="#000000" stroke-opacity="0.250980" d="M557.93,-482.26C511.61,-410.18 332.32,-131.2 286.19,-59.42"/>
</g>
<!-- (9, 1)&#45;&#45;(4, 6) -->
<g id="edge39" class="edge">
<title>(9, 1)&#45;&#45;(4, 6)</title>
<path fill="none" stroke="#000000" stroke-opacity="0.250980" d="M544.06,-487.99C454.14,-446.92 146.28,-306.33 56.28,-265.23"/>
</g>
<!-- (9, 1)&#45;&#45;(5, 5) -->
<g id="edge44" class="edge">
<title>(9, 1)&#45;&#45;(5, 5)</title>
<path fill="none" stroke="#000000" stroke-opacity="0.250980" d="M538.08,-494.9C443.27,-481.27 156.74,-440.07 62.1,-426.47"/>
</g>
<!-- (9, 1)&#45;&#45;(6, 4) -->
<g id="edge48" class="edge">
<title>(9, 1)&#45;&#45;(6, 4)</title>
<path fill="none" stroke="#000000" stroke-opacity="0.250980" d="M538.21,-503.75C456.63,-515.48 235.06,-547.33 153.23,-559.1"/>
</g>
<!-- (9, 1)&#45;&#45;(7, 3) -->
<g id="edge51" class="edge">
<title>(9, 1)&#45;&#45;(7, 3)</title>
<path fill="none" stroke="#000000" stroke-opacity="0.250980" d="M543.87,-510.77C488.41,-536.1 355.69,-596.71 300.28,-622.01"/>
</g>
</g>
</svg>
